<?xml version="1.0" encoding="UTF-8" standalone="no"?>
<svg
   xmlns:dc="http://purl.org/dc/elements/1.1/"
   xmlns:cc="http://creativecommons.org/ns#"
   xmlns:rdf="http://www.w3.org/1999/02/22-rdf-syntax-ns#"
   xmlns:svg="http://www.w3.org/2000/svg"
   xmlns="http://www.w3.org/2000/svg"
   viewBox="0 0 370.39371 400.62991"
   height="400.62991"
   width="370.39371"
   xml:space="preserve"
   id="svg834"
   version="1.1"><metadata
     id="metadata840"><rdf:RDF><cc:Work
         rdf:about=""><dc:format>image/svg+xml</dc:format><dc:type
           rdf:resource="http://purl.org/dc/dcmitype/StillImage" /><dc:title></dc:title></cc:Work></rdf:RDF></metadata><defs
     id="defs838" /><g
     transform="matrix(1.3333333,0,0,-1.3333333,0,400.62992)"
     id="g842"><g
       id="g844"><g
         transform="matrix(1,0,0,-1,0,300.47244)"
         id="g846"><path
           id="path848"
           style="fill:none;stroke:#000000;stroke-width:1.18109202;stroke-linecap:butt;stroke-linejoin:round;stroke-miterlimit:4;stroke-dasharray:none;stroke-opacity:1"
           d="m 184.941,151.113 c 0,12.028 -19.847,21.782 -44.336,21.782 -24.488,0 -44.335,-9.754 -44.335,-21.782 0,-12.031 19.847,-21.781 44.335,-21.781 24.489,0 44.336,9.75 44.336,21.781 z" /></g><path
         id="path850"
         style="fill:#fff6db;fill-opacity:1;fill-rule:nonzero;stroke:none"
         d="m 184.941,149.359 c 0,-12.027 -19.847,-21.781 -44.336,-21.781 -24.488,0 -44.335,9.754 -44.335,21.781 0,12.031 19.847,21.781 44.335,21.781 24.489,0 44.336,-9.75 44.336,-21.781 z" /><text
         id="text854"
         style="font-variant:normal;font-weight:normal;font-size:14.45332336px;font-family:'DejaVu Sans';-inkscape-font-specification:DejaVuSans;writing-mode:lr-tb;fill:#000000;fill-opacity:1;fill-rule:nonzero;stroke:none"
         transform="matrix(1,0,0,-1,111.91957,145.16616)"><tspan
           id="tspan852"
           y="0"
           x="0 14.077537 22.92297 28.588673 42.66621 51.858524">matmul</tspan></text>
<g
         transform="matrix(1,0,0,-1,0,300.47244)"
         id="g856"><path
           id="path858"
           style="fill:none;stroke:#000000;stroke-width:0.954252;stroke-linecap:butt;stroke-linejoin:miter;stroke-miterlimit:4;stroke-dasharray:none;stroke-opacity:1"
           d="m 70.637,68.172 35.492,62.598" /></g><g
         transform="matrix(-0.567026,1,1,0.567026,0,300.47244)"
         id="g860"><path
           id="path862"
           style="fill:#000000;fill-opacity:1;fill-rule:evenodd;stroke:#000000;stroke-width:0.885432;stroke-linecap:butt;stroke-linejoin:miter;stroke-miterlimit:4;stroke-dasharray:none;stroke-opacity:1"
           d="m -136.19,24.199 3.32,-3.321 -11.621,3.321 11.621,3.32 z" /></g><g
         transform="matrix(1,0,0,-1,0,300.47244)"
         id="g864"><path
           id="path866"
           style="fill:none;stroke:#000000;stroke-width:1.00792205;stroke-linecap:butt;stroke-linejoin:miter;stroke-miterlimit:4;stroke-dasharray:none;stroke-opacity:1"
           d="m 210.957,66.539 -39.598,62.598" /></g><g
         transform="matrix(0.632601,1,1,-0.632601,0,300.47244)"
         id="g868"><path
           id="path870"
           style="fill:#000000;fill-opacity:1;fill-rule:evenodd;stroke:#000000;stroke-width:0.90858001;stroke-linecap:butt;stroke-linejoin:miter;stroke-miterlimit:4;stroke-dasharray:none;stroke-opacity:1"
           d="m -6.29,180.725 3.408,-3.406 -11.926,3.408 11.924,3.406 z" /></g><g
         transform="matrix(1,0,0,-1,0,300.47244)"
         id="g872"><path
           id="path874"
           style="fill:none;stroke:#000000;stroke-width:0.96450299;stroke-linecap:butt;stroke-linejoin:miter;stroke-miterlimit:4;stroke-dasharray:none;stroke-opacity:1"
           d="m 141.602,175.953 v 59.363" /></g><g
         transform="matrix(0,1,1,0,0,300.47244)"
         id="g876"><path
           id="path878"
           style="fill:#000000;fill-opacity:1;fill-rule:evenodd;stroke:#000000;stroke-width:1.02880394;stroke-linecap:butt;stroke-linejoin:miter;stroke-miterlimit:4;stroke-dasharray:none;stroke-opacity:1"
           d="m -225.672,141.602 3.86,-3.86 -13.504,3.86 13.504,3.855 z" /></g><g
         transform="matrix(1,0,0,-1,0,300.47244)"
         id="g880"><path
           id="path882"
           style="fill:none;stroke:#000000;stroke-width:1.18109202;stroke-linecap:butt;stroke-linejoin:round;stroke-miterlimit:4;stroke-dasharray:none;stroke-opacity:1"
           d="m 111.09,42.391 c 0,12.027 -19.852,21.781 -44.336,21.781 -24.488,0 -44.34,-9.754 -44.34,-21.781 0,-12.032 19.852,-21.782 44.34,-21.782 24.484,0 44.336,9.75 44.336,21.782 z" /></g><path
         id="path884"
         style="fill:#ffbcb4;fill-opacity:1;fill-rule:nonzero;stroke:none"
         d="m 111.09,258.082 c 0,-12.028 -19.852,-21.781 -44.336,-21.781 -24.488,0 -44.34,9.753 -44.34,21.781 0,12.031 19.852,21.781 44.34,21.781 24.484,0 44.336,-9.75 44.336,-21.781 z" /><g
         transform="matrix(1,0,0,-1,0,300.47244)"
         id="g886"><path
           id="path888"
           style="fill:none;stroke:#000000;stroke-width:1.18109202;stroke-linecap:butt;stroke-linejoin:round;stroke-miterlimit:4;stroke-dasharray:none;stroke-opacity:1"
           d="m 260.344,39.008 c 0,12.027 -19.852,21.781 -44.336,21.781 -24.488,0 -44.34,-9.754 -44.34,-21.781 0,-12.031 19.852,-21.781 44.34,-21.781 24.484,0 44.336,9.75 44.336,21.781 z" /></g><path
         id="path890"
         style="fill:#bcb7f6;fill-opacity:1;fill-rule:nonzero;stroke:none"
         d="m 260.344,261.465 c 0,-12.028 -19.852,-21.782 -44.336,-21.782 -24.488,0 -44.34,9.754 -44.34,21.782 0,12.031 19.852,21.781 44.34,21.781 24.484,0 44.336,-9.75 44.336,-21.781 z" /><g
         transform="matrix(1,0,0,-1,0,300.47244)"
         id="g892"><path
           id="path894"
           style="fill:none;stroke:#000000;stroke-width:1.18109202;stroke-linecap:butt;stroke-linejoin:round;stroke-miterlimit:4;stroke-dasharray:none;stroke-opacity:1"
           d="m 186.812,262.602 c 0,12.027 -19.847,21.781 -44.335,21.781 -24.489,0 -44.336,-9.754 -44.336,-21.781 0,-12.032 19.847,-21.782 44.336,-21.782 24.488,0 44.335,9.75 44.335,21.782 z" /></g><path
         id="path896"
         style="fill:#ceffd9;fill-opacity:1;fill-rule:nonzero;stroke:none"
         d="m 186.812,37.871 c 0,-12.027 -19.847,-21.781 -44.335,-21.781 -24.489,0 -44.336,9.754 -44.336,21.781 0,12.031 19.847,21.781 44.336,21.781 24.488,0 44.335,-9.75 44.335,-21.781 z" /><text
         id="text900"
         style="font-variant:normal;font-weight:normal;font-size:16.86221123px;font-family:'DejaVu Sans';-inkscape-font-specification:DejaVuSans;writing-mode:lr-tb;fill:#ee6f81;fill-opacity:1;fill-rule:nonzero;stroke:none"
         transform="matrix(1,0,0,-1,93.201174,205.77215)"><tspan
           id="tspan898"
           y="0"
           x="0">a</tspan></text>
<text
         id="text904"
         style="font-variant:normal;font-weight:normal;font-size:16.86221123px;font-family:'DejaVu Sans';-inkscape-font-specification:DejaVuSans;writing-mode:lr-tb;fill:#6c5ffd;fill-opacity:1;fill-rule:nonzero;stroke:none"
         transform="matrix(1,0,0,-1,177.26308,204.36344)"><tspan
           id="tspan902"
           y="0"
           x="0">b</tspan></text>
<text
         id="text908"
         style="font-variant:normal;font-weight:normal;font-size:16.86221123px;font-family:'DejaVu Sans';-inkscape-font-specification:DejaVuSans;writing-mode:lr-tb;fill:#5ace74;fill-opacity:1;fill-rule:nonzero;stroke:none"
         transform="matrix(1,0,0,-1,145.78174,95.319288)"><tspan
           id="tspan906"
           y="0"
           x="0">c</tspan></text>
<g
         transform="matrix(1,0,0,-1,0,300.47244)"
         id="g910"><path
           id="path912"
           style="fill:none;stroke:#000000;stroke-width:0.79379499;stroke-linecap:butt;stroke-linejoin:miter;stroke-miterlimit:4;stroke-dasharray:none;stroke-opacity:1"
           d="m 59.895,26.719 h -6.387 v 31.48 h 6.844" /></g><g
         transform="matrix(1,0,0,-1,0,300.47244)"
         id="g914"><path
           id="path916"
           style="fill:none;stroke:#000000;stroke-width:0.82165498;stroke-linecap:butt;stroke-linejoin:miter;stroke-miterlimit:4;stroke-dasharray:none;stroke-opacity:1"
           d="m 72.215,26.719 h 6.844 v 31.48 h -7.332" /></g><g
         transform="matrix(1,0,0,-1,0,300.47244)"
         id="g918"><path
           id="path920"
           style="fill:none;stroke:#000000;stroke-width:0.55287403;stroke-linecap:butt;stroke-linejoin:miter;stroke-miterlimit:4;stroke-dasharray:none;stroke-opacity:1"
           d="m 200.016,32.211 h -6.551 v 14.894 h 7.019" /></g><g
         transform="matrix(1,0,0,-1,0,300.47244)"
         id="g922"><path
           id="path924"
           style="fill:none;stroke:#000000;stroke-width:0.57215601;stroke-linecap:butt;stroke-linejoin:miter;stroke-miterlimit:4;stroke-dasharray:none;stroke-opacity:1"
           d="m 231.555,32.047 h 7.011 v 14.894 h -7.515" /></g><text
         id="text934"
         style="font-variant:normal;font-weight:normal;font-size:7.22666121px;font-family:'DejaVu Sans';-inkscape-font-specification:DejaVuSans;writing-mode:lr-tb;fill:#000000;fill-opacity:1;fill-rule:nonzero;stroke:none"
         transform="matrix(1,0,0,-1,64.001055,265.08487)"><tspan
           id="tspan926"
           y="0"
           x="0">1</tspan><tspan
           id="tspan928"
           y="9.0333261"
           x="0">2</tspan><tspan
           id="tspan930"
           y="18.066652"
           x="0">3</tspan><tspan
           id="tspan932"
           y="6.3246217"
           x="141.00722 145.60338 150.18507 154.78123 159.38461">1 2 3</tspan></text>
<g
         transform="matrix(1,0,0,-1,0,300.47244)"
         id="g936"><path
           id="path938"
           style="fill:none;stroke:#000000;stroke-width:0.79379499;stroke-linecap:butt;stroke-linejoin:miter;stroke-miterlimit:4;stroke-dasharray:none;stroke-opacity:1"
           d="m 131.082,247.773 h -6.387 v 31.481 h 6.844" /></g><g
         transform="matrix(1,0,0,-1,0,300.47244)"
         id="g940"><path
           id="path942"
           style="fill:none;stroke:#000000;stroke-width:0.82165498;stroke-linecap:butt;stroke-linejoin:miter;stroke-miterlimit:4;stroke-dasharray:none;stroke-opacity:1"
           d="m 151.531,247.773 h 6.844 v 31.481 h -7.332" /></g><text
         id="text950"
         style="font-variant:normal;font-weight:normal;font-size:7.22666121px;font-family:'DejaVu Sans';-inkscape-font-specification:DejaVuSans;writing-mode:lr-tb;fill:#000000;fill-opacity:1;fill-rule:nonzero;stroke:none"
         transform="matrix(1,0,0,-1,130.20129,43.409406)"><tspan
           id="tspan944"
           y="0"
           x="0 4.5961566 9.1778593 13.774015 18.377399">1 2 3</tspan><tspan
           id="tspan946"
           y="9.0333261"
           x="0 4.5961566 9.1778593 13.774015 18.377399">2 4 6</tspan><tspan
           id="tspan948"
           y="18.066652"
           x="0 4.5961566 9.1778593 13.774015 18.377399">3 6 9</tspan></text>
</g></g></svg>