<svg id="svg2" xmlns="http://www.w3.org/2000/svg" xmlns:xlink="http://www.w3.org/1999/xlink" viewBox="0 0 1440 480"><defs><style>.cls-1,.cls-11,.cls-12,.cls-13,.cls-14,.cls-4,.cls-5{fill:none;}.cls-2{fill:#fff;}.cls-3{clip-path:url(#clip-path);}.cls-4{stroke:#ddd;stroke-width:0.4px;stroke-dasharray:1.48 0.64;}.cls-11,.cls-12,.cls-13,.cls-4,.cls-5{stroke-linejoin:round;}.cls-14,.cls-5{stroke:#262626;}.cls-5{stroke-width:1.07px;}.cls-10,.cls-15,.cls-16,.cls-18,.cls-19,.cls-20,.cls-6,.cls-7,.cls-8,.cls-9{isolation:isolate;}.cls-7{font-size:13.33px;}.cls-10,.cls-15,.cls-16,.cls-18,.cls-19,.cls-20,.cls-7,.cls-8,.cls-9{fill:#262626;font-family:ArialMT, Arial;}.cls-18,.cls-8,.cls-9{font-size:16px;}.cls-9{letter-spacing:-0.02em;}.cls-10{font-size:11.2px;}.cls-11{stroke:#0072b2;stroke-dasharray:7.4 3.2;}.cls-11,.cls-12,.cls-13{stroke-width:2px;}.cls-12{stroke:#009e73;stroke-dasharray:2 3.3;}.cls-13{stroke:#d55e00;stroke-dasharray:12.8 3.2 2 3.2;}.cls-14{stroke-linecap:square;stroke-miterlimit:1.33;stroke-width:1.67px;}.cls-15{font-size:24.21px;}.cls-16{font-size:16.95px;}.cls-17{clip-path:url(#clip-path-17);}.cls-18{letter-spacing:-0.06em;}.cls-19{font-size:20.09px;}.cls-20{font-size:14.06px;}</style><clipPath id="clip-path"><rect class="cls-1" x="70.07" y="22.4" width="632.93" height="390.53"/></clipPath><clipPath id="clip-path-17"><rect class="cls-1" x="784.67" y="22.4" width="632.93" height="390.53"/></clipPath></defs><g id="g10"><g id="g12"><path id="path14" class="cls-2" d="M0,480H1440V0H0Z"/><path id="path16" class="cls-2" d="M70.07,412.93H703V22.4H70.07Z"/><g id="g18"><g class="cls-3"><g id="g20"><path id="path26" class="cls-4" d="M98.83,412.93V22.4"/></g></g></g><path id="path30" class="cls-5" d="M98.83,412.93v8"/><g id="g32"><g id="text36" class="cls-6"><text class="cls-7" transform="translate(83.81 435.27)">−</text><text class="cls-7" transform="translate(91.6 435.27)">1</text><text class="cls-7" transform="translate(99.02 435.27)">0</text><text class="cls-7" transform="translate(106.43 435.27)">0</text></g></g><g id="g38"><g class="cls-3"><g id="g40"><path id="path46" class="cls-4" d="M170.76,412.93V22.4"/></g></g></g><path id="path50" class="cls-5" d="M170.76,412.93v8"/><g id="g52"><g id="text56" class="cls-6"><text class="cls-7" transform="translate(159.45 435.27)">−</text><text class="cls-7" transform="translate(167.23 435.27)">7</text><text class="cls-7" transform="translate(174.65 435.27)">5</text></g></g><g id="g58"><g class="cls-3"><g id="g60"><path id="path66" class="cls-4" d="M242.68,412.93V22.4"/></g></g></g><path id="path70" class="cls-5" d="M242.68,412.93v8"/><g id="g72"><g id="text76" class="cls-6"><text class="cls-7" transform="translate(231.37 435.27)">−</text><text class="cls-7" transform="translate(239.16 435.27)">5</text><text class="cls-7" transform="translate(246.57 435.27)">0</text></g></g><g id="g78"><g class="cls-3"><g id="g80"><path id="path86" class="cls-4" d="M314.61,412.93V22.4"/></g></g></g><path id="path90" class="cls-5" d="M314.61,412.93v8"/><g id="g92"><g id="text96" class="cls-6"><text class="cls-7" transform="translate(303.29 435.27)">−</text><text class="cls-7" transform="translate(311.08 435.27)">2</text><text class="cls-7" transform="translate(318.5 435.27)">5</text></g></g><g id="g98"><g class="cls-3"><g id="g100"><path id="path106" class="cls-4" d="M386.53,412.93V22.4"/></g></g></g><path id="path110" class="cls-5" d="M386.53,412.93v8"/><g id="g112"><g id="text116" class="cls-6"><text class="cls-7" transform="translate(382.82 435.27)">0</text></g></g><g id="g118"><g class="cls-3"><g id="g120"><path id="path126" class="cls-4" d="M458.45,412.93V22.4"/></g></g></g><path id="path130" class="cls-5" d="M458.45,412.93v8"/><g id="g132"><g id="text136" class="cls-6"><text class="cls-7" transform="translate(451.04 435.27)">2</text><text class="cls-7" transform="translate(458.45 435.27)">5</text></g></g><g id="g138"><g class="cls-3"><g id="g140"><path id="path146" class="cls-4" d="M530.38,412.93V22.4"/></g></g></g><path id="path150" class="cls-5" d="M530.38,412.93v8"/><g id="g152"><g id="text156" class="cls-6"><text class="cls-7" transform="translate(522.96 435.27)">5</text><text class="cls-7" transform="translate(530.38 435.27)">0</text></g></g><g id="g158"><g class="cls-3"><g id="g160"><path id="path166" class="cls-4" d="M602.3,412.93V22.4"/></g></g></g><path id="path170" class="cls-5" d="M602.3,412.93v8"/><g id="g172"><g id="text176" class="cls-6"><text class="cls-7" transform="translate(594.89 435.27)">7</text><text class="cls-7" transform="translate(602.3 435.27)">5</text></g></g><g id="g178"><g class="cls-3"><g id="g180"><path id="path186" class="cls-4" d="M674.23,412.93V22.4"/></g></g></g><path id="path190" class="cls-5" d="M674.23,412.93v8"/><g id="g192"><g id="text196" class="cls-6"><text class="cls-7" transform="translate(663.1 435.27)">1</text><text class="cls-7" transform="translate(670.52 435.27)">0</text><text class="cls-7" transform="translate(677.93 435.27)">0</text></g><g id="text200" class="cls-6"><text class="cls-8" transform="translate(283.18 454.97)">M</text><text class="cls-8" transform="translate(296.51 454.97)">e</text><text class="cls-8" transform="translate(305.41 454.97)">m</text><text class="cls-8" transform="translate(318.74 454.97)">b</text><text class="cls-8" transform="translate(327.64 454.97)">r</text><text class="cls-8" transform="translate(332.96 454.97)">a</text><text class="cls-8" transform="translate(341.86 454.97)">n</text><text class="cls-8" transform="translate(350.76 454.97)">e</text><text class="cls-8" transform="translate(359.66 454.97)"> </text><text class="cls-8" transform="translate(364.11 454.97)">V</text><text class="cls-8" transform="translate(374.78 454.97)">o</text><text class="cls-8" transform="translate(383.68 454.97)">l</text><text class="cls-8" transform="translate(387.23 454.97)">t</text><text class="cls-8" transform="translate(391.68 454.97)">a</text><text class="cls-8" transform="translate(400.57 454.97)">g</text><text class="cls-8" transform="translate(409.47 454.97)">e</text><text class="cls-8" transform="translate(418.37 454.97)"> </text></g><g id="text204" class="cls-6"><text class="cls-8" transform="translate(422.82 454.97)">u</text></g><g id="text208" class="cls-6"><text class="cls-8" transform="translate(437.4 454.97)">(</text><text class="cls-8" transform="translate(442.73 454.97)">i</text><text class="cls-8" transform="translate(446.29 454.97)">n</text><text class="cls-8" transform="translate(455.18 454.97)"> </text><text class="cls-8" transform="translate(459.63 454.97)">m</text><text class="cls-8" transform="translate(472.96 454.97)">V</text><text class="cls-8" transform="translate(483.63 454.97)">)</text></g></g><g id="g210"><g class="cls-3"><g id="g212"><path id="path218" class="cls-4" d="M70.07,396.54H703"/></g></g></g><path id="path222" class="cls-5" d="M70.07,396.54h-8"/><g id="g224"><g id="text228" class="cls-6"><text class="cls-7" transform="translate(49.98 401.38)">0</text></g></g><g id="g230"><g class="cls-3"><g id="g232"><path id="path238" class="cls-4" d="M70.07,332.37H703"/></g></g></g><path id="path242" class="cls-5" d="M70.07,332.37h-8"/><g id="g244"><g id="text248" class="cls-6"><text class="cls-7" transform="translate(49.98 337.21)">5</text></g></g><g id="g250"><g class="cls-3"><g id="g252"><path id="path258" class="cls-4" d="M70.07,268.2H703"/></g></g></g><path id="path262" class="cls-5" d="M70.07,268.2h-8"/><g id="g264"><g id="text268" class="cls-6"><text class="cls-7" transform="translate(42.57 273.04)">1</text><text class="cls-7" transform="translate(49.98 273.04)">0</text></g></g><g id="g270"><g class="cls-3"><g id="g272"><path id="path278" class="cls-4" d="M70.07,204H703"/></g></g></g><path id="path282" class="cls-5" d="M70.07,204h-8"/><g id="g284"><g id="text288" class="cls-6"><text class="cls-7" transform="translate(42.57 208.87)">1</text><text class="cls-7" transform="translate(49.98 208.87)">5</text></g></g><g id="g290"><g class="cls-3"><g id="g292"><path id="path298" class="cls-4" d="M70.07,139.86H703"/></g></g></g><path id="path302" class="cls-5" d="M70.07,139.86h-8"/><g id="g304"><g id="text308" class="cls-6"><text class="cls-7" transform="translate(42.57 144.7)">2</text><text class="cls-7" transform="translate(49.98 144.7)">0</text></g></g><g id="g310"><g class="cls-3"><g id="g312"><path id="path318" class="cls-4" d="M70.07,75.69H703"/></g></g></g><path id="path322" class="cls-5" d="M70.07,75.69h-8"/><g id="g324"><g id="text328" class="cls-6"><text class="cls-7" transform="translate(42.57 80.52)">2</text><text class="cls-7" transform="translate(49.98 80.52)">5</text></g><g id="text332" class="cls-6"><text class="cls-9" transform="translate(32.05 318.33) rotate(-90)">T</text><text class="cls-8" transform="translate(32.05 308.56) rotate(-90)">i</text><text class="cls-8" transform="translate(32.05 305.01) rotate(-90)">m</text><text class="cls-8" transform="translate(32.05 291.68) rotate(-90)">e</text><text class="cls-8" transform="translate(32.05 282.78) rotate(-90)"> </text><text class="cls-8" transform="translate(32.05 278.33) rotate(-90)">C</text><text class="cls-8" transform="translate(32.05 266.78) rotate(-90)">o</text><text class="cls-8" transform="translate(32.05 257.88) rotate(-90)">n</text><text class="cls-8" transform="translate(32.05 248.98) rotate(-90)">s</text><text class="cls-8" transform="translate(32.05 240.98) rotate(-90)">t</text><text class="cls-8" transform="translate(32.05 236.54) rotate(-90)">a</text><text class="cls-8" transform="translate(32.05 227.64) rotate(-90)">n</text><text class="cls-8" transform="translate(32.05 218.74) rotate(-90)">t</text><text class="cls-8" transform="translate(32.05 214.29) rotate(-90)"> </text></g><g id="text336" class="cls-6"><text class="cls-8" transform="translate(32.05 209.85) rotate(-90)">τ</text></g><g id="text340" class="cls-6"><text class="cls-10" transform="translate(34.67 200.22) rotate(-90)">x</text></g><g id="text344" class="cls-6"><text class="cls-8" transform="translate(32.05 193.15) rotate(-90)">(</text></g><g id="text348" class="cls-6"><text class="cls-8" transform="translate(32.05 186.91) rotate(-90)">u</text></g><g id="text352" class="cls-6"><text class="cls-8" transform="translate(32.05 176.77) rotate(-90)">)</text></g><g id="text356" class="cls-6"><text class="cls-8" transform="translate(32.05 166.08) rotate(-90)">(</text><text class="cls-8" transform="translate(32.05 160.75) rotate(-90)">i</text><text class="cls-8" transform="translate(32.05 157.2) rotate(-90)">n</text><text class="cls-8" transform="translate(32.05 148.3) rotate(-90)"> </text><text class="cls-8" transform="translate(32.05 143.85) rotate(-90)">m</text><text class="cls-8" transform="translate(32.05 130.53) rotate(-90)">s</text><text class="cls-8" transform="translate(32.05 122.53) rotate(-90)">)</text></g></g><g id="g358"><g class="cls-3"><g id="g360"><path id="path366" class="cls-11" d="M98.83,369.88l12.09-2.95,11.51-3.12,11-3.28L144,357.09l10.12-3.63,9.76-3.81,9.43-4,9.18-4.21,9-4.45,8.89-4.73,8.91-5.09,9.27-5.63,10.41-6.69L256,297.24l5.87-3.32,4.95-2.46,4.43-1.88,4.09-1.41,3.82-1,3.69-.68,3.59-.36,3.6-.06,3.62.23,3.71.54,3.89.87,4.11,1.23,4.49,1.66,5.06,2.19,6,2.93,7.88,4.21,31.07,16.92,9.44,4.62,9.2,4.17,9.27,3.88,9.52,3.66,9.87,3.48,10.3,3.31,10.85,3.17,11.44,3,12.17,2.92,13,2.81,13.87,2.69,14.9,2.59,16.08,2.48L527.16,362l18.9,2.29,20.65,2.21,22.65,2.1,24.94,2,27.59,1.93,30.7,1.85,1.61.09h0"/><path id="path368" class="cls-12" d="M98.83,394.17,156,393.5l40.05-.75,30.26-.85,28.89-1.13,28.65-1.06,15.51-.26,16,0,18.81.36,23.85.76,61.45,2.1,33.17.72,42.64.62,59.27.54,86.59.47,33.09.12h0"/><path id="path370" class="cls-13" d="M98.83,385.26l8.26-1.95,7.68-2.12,7.17-2.28,6.76-2.46,6.38-2.63,6.07-2.83,5.79-3,5.52-3.22,5.32-3.44,5.15-3.68,5-3.93,4.83-4.19,4.72-4.49,4.61-4.79,4.48-5.09,4.43-5.49,4.35-5.85,4.28-6.27,4.23-6.72,4.18-7.19,4.14-7.73,4.11-8.31,4.09-8.93,4.08-9.64,4.06-10.35,4.06-11.16,4.08-12.11,4.11-13.15,4.18-14.33,4.28-15.81,4.46-17.61,4.81-20.21,5.75-25.56L275.57,78l3.13-12.46L281.15,57l2-6,1.7-4.22,1.47-2.9L287.56,42l1.07-1.09.92-.55.83-.18.78.13.81.45.86.84.95,1.37,1,2,1.15,3,1.3,4.18,1.41,5.61,1.58,7.56,1.76,9.9,2,13.15,2.33,17.27,2.94,24.12,4.91,43.38,5.15,44.52,3.34,26.29,2.91,20.62,2.67,16.93,2.56,14.36,2.48,12.2,2.38,10.33,2.36,8.92,2.33,7.67,2.31,6.58,2.3,5.71,2.3,4.92,2.33,4.29,2.36,3.73,2.39,3.23,2.44,2.81,2.53,2.46,2.65,2.16,2.79,1.9,3,1.65,3.23,1.45,3.54,1.27,3.94,1.09,4.48.92,5.27.78,6.36.63,8.05.48,11,.34,17.09.2,37.15.07H674.2"/></g></g></g><path id="path372" class="cls-14" d="M70.07,412.93V22.4"/><path id="path374" class="cls-14" d="M70.07,412.93H703"/><path id="path376" class="cls-11" d="M591.63,45.5h48.42"/><g id="g378"><g id="text382" class="cls-6"><text class="cls-15" transform="translate(659.41 52.69)">τ</text></g><g id="text386" class="cls-6"><text class="cls-16" transform="translate(673.99 56.66)">n</text></g></g><path id="path388" class="cls-12" d="M591.63,80.19h48.42"/><g id="g390"><g id="text394" class="cls-6"><text class="cls-15" transform="translate(659.41 87.38)">τ</text></g><g id="text398" class="cls-6"><text class="cls-16" transform="translate(673.99 91.35)">m</text></g></g><path id="path400" class="cls-13" d="M591.63,114.87h48.42"/><g id="g402"><g id="text406" class="cls-6"><text class="cls-15" transform="translate(659.41 122.06)">τ</text></g><g id="text410" class="cls-6"><text class="cls-16" transform="translate(673.99 126.03)">h</text></g></g><path id="path412" class="cls-2" d="M784.7,412.93h632.9V22.4H784.7Z"/><g id="g414"><g class="cls-17"><g id="g416"><path id="path422" class="cls-4" d="M813.47,412.93V22.4"/></g></g></g><path id="path426" class="cls-5" d="M813.47,412.93v8"/><g id="g428"><g id="text432" class="cls-6"><text class="cls-7" transform="translate(798.45 435.27)">−</text><text class="cls-7" transform="translate(806.23 435.27)">1</text><text class="cls-7" transform="translate(813.65 435.27)">0</text><text class="cls-7" transform="translate(821.07 435.27)">0</text></g></g><g id="g434"><g class="cls-17"><g id="g436"><path id="path442" class="cls-4" d="M885.39,412.93V22.4"/></g></g></g><path id="path446" class="cls-5" d="M885.39,412.93v8"/><g id="g448"><g id="text452" class="cls-6"><text class="cls-7" transform="translate(874.08 435.27)">−</text><text class="cls-7" transform="translate(881.87 435.27)">7</text><text class="cls-7" transform="translate(889.28 435.27)">5</text></g></g><g id="g454"><g class="cls-17"><g id="g456"><path id="path462" class="cls-4" d="M957.32,412.93V22.4"/></g></g></g><path id="path466" class="cls-5" d="M957.32,412.93v8"/><g id="g468"><g id="text472" class="cls-6"><text class="cls-7" transform="translate(946 435.27)">−</text><text class="cls-7" transform="translate(953.79 435.27)">5</text><text class="cls-7" transform="translate(961.21 435.27)">0</text></g></g><g id="g474"><g class="cls-17"><g id="g476"><path id="path482" class="cls-4" d="M1029.24,412.93V22.4"/></g></g></g><path id="path486" class="cls-5" d="M1029.24,412.93v8"/><g id="g488"><g id="text492" class="cls-6"><text class="cls-7" transform="translate(1017.93 435.27)">−</text><text class="cls-7" transform="translate(1025.71 435.27)">2</text><text class="cls-7" transform="translate(1033.13 435.27)">5</text></g></g><g id="g494"><g class="cls-17"><g id="g496"><path id="path502" class="cls-4" d="M1101.16,412.93V22.4"/></g></g></g><path id="path506" class="cls-5" d="M1101.16,412.93v8"/><g id="g508"><g id="text512" class="cls-6"><text class="cls-7" transform="translate(1097.46 435.27)">0</text></g></g><g id="g514"><g class="cls-17"><g id="g516"><path id="path522" class="cls-4" d="M1173.09,412.93V22.4"/></g></g></g><path id="path526" class="cls-5" d="M1173.09,412.93v8"/><g id="g528"><g id="text532" class="cls-6"><text class="cls-7" transform="translate(1165.67 435.27)">2</text><text class="cls-7" transform="translate(1173.09 435.27)">5</text></g></g><g id="g534"><g class="cls-17"><g id="g536"><path id="path542" class="cls-4" d="M1245,412.93V22.4"/></g></g></g><path id="path546" class="cls-5" d="M1245,412.93v8"/><g id="g548"><g id="text552" class="cls-6"><text class="cls-7" transform="translate(1237.6 435.27)">5</text><text class="cls-7" transform="translate(1245.01 435.27)">0</text></g></g><g id="g554"><g class="cls-17"><g id="g556"><path id="path562" class="cls-4" d="M1316.94,412.93V22.4"/></g></g></g><path id="path566" class="cls-5" d="M1316.94,412.93v8"/><g id="g568"><g id="text572" class="cls-6"><text class="cls-7" transform="translate(1309.52 435.27)">7</text><text class="cls-7" transform="translate(1316.94 435.27)">5</text></g></g><g id="g574"><g class="cls-17"><g id="g576"><path id="path582" class="cls-4" d="M1388.87,412.93V22.4"/></g></g></g><path id="path586" class="cls-5" d="M1388.87,412.93v8"/><g id="g588"><g id="text592" class="cls-6"><text class="cls-7" transform="translate(1377.73 435.27)">1</text><text class="cls-7" transform="translate(1385.15 435.27)">0</text><text class="cls-7" transform="translate(1392.56 435.27)">0</text></g><g id="text596" class="cls-6"><text class="cls-8" transform="translate(997.81 454.97)">M</text><text class="cls-8" transform="translate(1011.14 454.97)">e</text><text class="cls-8" transform="translate(1020.04 454.97)">m</text><text class="cls-8" transform="translate(1033.37 454.97)">b</text><text class="cls-8" transform="translate(1042.27 454.97)">r</text><text class="cls-8" transform="translate(1047.6 454.97)">a</text><text class="cls-8" transform="translate(1056.49 454.97)">n</text><text class="cls-8" transform="translate(1065.39 454.97)">e</text><text class="cls-8" transform="translate(1074.29 454.97)"> </text><text class="cls-8" transform="translate(1078.74 454.97)">V</text><text class="cls-8" transform="translate(1089.41 454.97)">o</text><text class="cls-8" transform="translate(1098.31 454.97)">l</text><text class="cls-8" transform="translate(1101.86 454.97)">t</text><text class="cls-8" transform="translate(1106.31 454.97)">a</text><text class="cls-8" transform="translate(1115.21 454.97)">g</text><text class="cls-8" transform="translate(1124.1 454.97)">e</text><text class="cls-8" transform="translate(1133 454.97)"> </text></g><g id="text600" class="cls-6"><text class="cls-8" transform="translate(1137.45 454.97)">u</text></g><g id="text604" class="cls-6"><text class="cls-8" transform="translate(1152.03 454.97)">(</text><text class="cls-8" transform="translate(1157.36 454.97)">i</text><text class="cls-8" transform="translate(1160.92 454.97)">n</text><text class="cls-8" transform="translate(1169.81 454.97)"> </text><text class="cls-8" transform="translate(1174.26 454.97)">m</text><text class="cls-8" transform="translate(1187.59 454.97)">V</text><text class="cls-8" transform="translate(1198.26 454.97)">)</text></g></g><g id="g606"><g class="cls-17"><g id="g608"><path id="path614" class="cls-4" d="M784.7,395.18h632.9"/></g></g></g><path id="path618" class="cls-5" d="M784.7,395.18h-8"/><g id="g620"><g id="text624" class="cls-6"><text class="cls-7" transform="translate(753.49 400.01)">0</text><text class="cls-7" transform="translate(760.91 400.01)">.</text><text class="cls-7" transform="translate(764.61 400.01)">0</text></g></g><g id="g626"><g class="cls-17"><g id="g628"><path id="path634" class="cls-4" d="M784.7,324.18h632.9"/></g></g></g><path id="path638" class="cls-5" d="M784.7,324.18h-8"/><g id="g640"><g id="text644" class="cls-6"><text class="cls-7" transform="translate(753.49 329.01)">0</text><text class="cls-7" transform="translate(760.91 329.01)">.</text><text class="cls-7" transform="translate(764.61 329.01)">2</text></g></g><g id="g646"><g class="cls-17"><g id="g648"><path id="path654" class="cls-4" d="M784.7,253.17h632.9"/></g></g></g><path id="path658" class="cls-5" d="M784.7,253.17h-8"/><g id="g660"><g id="text664" class="cls-6"><text class="cls-7" transform="translate(753.49 258)">0</text><text class="cls-7" transform="translate(760.91 258)">.</text><text class="cls-7" transform="translate(764.61 258)">4</text></g></g><g id="g666"><g class="cls-17"><g id="g668"><path id="path674" class="cls-4" d="M784.7,182.16h632.9"/></g></g></g><path id="path678" class="cls-5" d="M784.7,182.16h-8"/><g id="g680"><g id="text684" class="cls-6"><text class="cls-7" transform="translate(753.49 187)">0</text><text class="cls-7" transform="translate(760.91 187)">.</text><text class="cls-7" transform="translate(764.61 187)">6</text></g></g><g id="g686"><g class="cls-17"><g id="g688"><path id="path694" class="cls-4" d="M784.7,111.16h632.9"/></g></g></g><path id="path698" class="cls-5" d="M784.7,111.16h-8"/><g id="g700"><g id="text704" class="cls-6"><text class="cls-7" transform="translate(753.49 115.99)">0</text><text class="cls-7" transform="translate(760.91 115.99)">.</text><text class="cls-7" transform="translate(764.61 115.99)">8</text></g></g><g id="g706"><g class="cls-17"><g id="g708"><path id="path714" class="cls-4" d="M784.7,40.15h632.9"/></g></g></g><path id="path718" class="cls-5" d="M784.7,40.15h-8"/><g id="g720"><g id="text724" class="cls-6"><text class="cls-7" transform="translate(753.49 44.98)">1</text><text class="cls-7" transform="translate(760.91 44.98)">.</text><text class="cls-7" transform="translate(764.61 44.98)">0</text></g><g id="text728" class="cls-6"><text class="cls-18" transform="translate(742.97 307) rotate(-90)">A</text><text class="cls-8" transform="translate(742.97 296.33) rotate(-90)">s</text><text class="cls-8" transform="translate(742.97 288.33) rotate(-90)"> </text><text class="cls-8" transform="translate(742.97 280.33) rotate(-90)">m</text><text class="cls-8" transform="translate(742.97 267) rotate(-90)">p</text><text class="cls-8" transform="translate(742.97 258.1) rotate(-90)">t</text><text class="cls-8" transform="translate(742.97 253.66) rotate(-90)">o</text><text class="cls-8" transform="translate(742.97 244.76) rotate(-90)">t</text><text class="cls-8" transform="translate(742.97 240.31) rotate(-90)">i</text><text class="cls-8" transform="translate(742.97 236.76) rotate(-90)">c</text><text class="cls-8" transform="translate(742.97 228.76) rotate(-90)"> </text><text class="cls-8" transform="translate(742.97 224.31) rotate(-90)">G</text><text class="cls-8" transform="translate(742.97 211.87) rotate(-90)">a</text><text class="cls-8" transform="translate(742.97 202.97) rotate(-90)">t</text><text class="cls-8" transform="translate(742.97 198.52) rotate(-90)">i</text><text class="cls-8" transform="translate(742.97 194.97) rotate(-90)">n</text><text class="cls-8" transform="translate(742.97 186.07) rotate(-90)">g</text><text class="cls-8" transform="translate(742.97 177.17) rotate(-90)"> </text></g><g id="text732" class="cls-6"><text class="cls-8" transform="translate(742.97 172.73) rotate(-90)">x</text></g><g id="text736" class="cls-6"><text class="cls-10" transform="translate(745.6 163.26) rotate(-90)">0</text></g><g id="text740" class="cls-6"><text class="cls-8" transform="translate(742.97 155.7) rotate(-90)">(</text></g><g id="text744" class="cls-6"><text class="cls-8" transform="translate(742.97 149.45) rotate(-90)">u</text></g><g id="text748" class="cls-6"><text class="cls-8" transform="translate(742.97 139.31) rotate(-90)">)</text></g></g><g id="g750"><g class="cls-17"><g id="g752"><path id="path758" class="cls-11" d="M813.47,395.18l81.24-.15,16.8-.32,10.65-.49,8-.65,6.44-.81,5.47-1,4.78-1.16,4.28-1.33,3.94-1.54,3.69-1.75,3.48-2,3.33-2.24,3.23-2.53,3.16-2.86,3.14-3.24,3.13-3.66,3.17-4.17,3.19-4.71,3.28-5.36,3.42-6.18,3.57-7.07,3.8-8.19,4.14-9.66,4.63-11.58,5.5-14.58,7.65-21.23L1035,236.5l6.45-16.94,5.66-14.09,5.3-12.38,5.06-11.1,4.92-10.08,4.84-9.24,4.8-8.55,4.78-7.9,4.8-7.38,4.83-6.89,4.87-6.41,4.92-6,5-5.65,5.09-5.3,5.21-5,5.35-4.72,5.5-4.46,5.64-4.18,5.84-4,6-3.75,6.27-3.53,6.53-3.35,6.85-3.17,7.16-3,7.54-2.82,8-2.66,8.45-2.52,9-2.36,9.61-2.21,10.33-2.07,11.16-1.93,12.11-1.79,13.24-1.65,14.58-1.52,16.2-1.38,18.15-1.24,20.63-1.11,23.8-1,27.93-.83,11.39-.27h0"/><path id="path760" class="cls-12" d="M813.47,395.18,911.2,395l14.33-.32,9-.48,6.73-.65,5.44-.81,4.6-1,4.06-1.16,3.63-1.35,3.33-1.54,3.14-1.79,3-2,2.88-2.32,2.79-2.65,2.76-3,2.73-3.44,2.74-3.93,2.79-4.53,2.85-5.22,2.9-5.95,3-6.87,3.17-7.94,3.36-9.28,3.63-10.88,4-12.89,4.49-15.62,5.41-19.95,7.76-29.91,12.72-49,6-21.89,5.09-17.45,4.58-14.64L1058.3,124l4-10.88,3.74-9.41,3.59-8.26,3.46-7.2,3.36-6.35,3.28-5.56,3.22-4.9,3.2-4.33,3.19-3.83,3.2-3.37,3.22-3,3.28-2.62,3.36-2.32,3.51-2.05,3.69-1.81,3.88-1.57,4.2-1.38,4.6-1.19,5.12-1,5.84-.85,6.88-.69,8.43-.54,11-.39,16.08-.25,29.89-.12,133.26,0h50.06"/><path id="path762" class="cls-13" d="M813.47,40.15l118.18.15,12.92.32,7.94.47,5.81.64,4.61.79,3.85.95,3.31,1.12,2.93,1.3,2.68,1.51,2.47,1.74,2.34,2,2.21,2.29,2.13,2.64,2.1,3.08,2,3.53,2,4.14,2.05,4.81,2,5.59,2.07,6.54,2.13,7.73,2.19,9.08,2.27,10.74,2.42,12.9,2.59,15.49,2.87,19.08,3.48,25.19,6.25,47.9,4.63,34.34,3.25,21.94,2.82,17.07,2.56,13.74,2.42,11.42,2.33,9.61,2.24,8.05,2.21,6.86,2.19,5.82,2.16,4.93,2.16,4.21,2.18,3.63,2.22,3.1,2.27,2.69,2.36,2.32,2.48,2,2.61,1.76,2.82,1.53,3.11,1.34,3.48,1.18,4,1,4.69.89,5.7.76,7.25.67,9.81.57,14.21.52,21.75.48,32.57.4,48.65.27,86,.14,80.38,0h0"/></g></g></g><path id="path764" class="cls-14" d="M784.7,412.93V22.4"/><path id="path766" class="cls-14" d="M784.7,412.93h632.9"/><path id="path768" class="cls-11" d="M1320.14,172.35h40.18"/><g id="g770"><g id="text774" class="cls-6"><text class="cls-19" transform="translate(1376.39 178.57)">n</text></g><g id="text778" class="cls-6"><text class="cls-20" transform="translate(1389.12 181.86)">0</text></g></g><path id="path780" class="cls-12" d="M1320.14,201.13h40.18"/><g id="g782"><g id="text786" class="cls-6"><text class="cls-19" transform="translate(1376.39 207.35)">m</text></g><g id="text790" class="cls-6"><text class="cls-20" transform="translate(1395.96 210.65)">0</text></g></g><path id="path792" class="cls-13" d="M1320.14,231.27h40.18"/><g id="g794"><g id="text798" class="cls-6"><text class="cls-19" transform="translate(1376.39 237.48)">h</text></g><g id="text802" class="cls-6"><text class="cls-20" transform="translate(1389.12 240.78)">0</text></g></g></g></g></svg>